<?xml version="1.0" encoding="UTF-8"?>
<svg id="Layer_2" data-name="Layer 2" xmlns="http://www.w3.org/2000/svg" viewBox="0 0 1280 315">
  <defs>
    <style>
      .cls-1 {
        fill: #3b82f6;
      }
    </style>
  </defs>
  <g id="Layer_1-2" data-name="Layer 1">
    <g>
      <path class="cls-1" d="m49.23,0h85.24c53.76.14,77.09,26.09,71.47,73.62-6.05,50.21-12.09,100.43-18.14,150.64-5.61,47.58-37.38,75.59-95.75,81.23-30.71,2.92-61.39,6.09-92.05,9.51C16.41,210,32.82,105,49.23,0Zm47.46,44.12c-10.7,73.53-21.4,147.05-32.1,220.58,10.82-.95,21.64-1.87,32.47-2.76,18.35-1.53,30.39-10.16,33.25-31.78,6.98-52.49,13.96-104.98,20.94-157.48,2.86-21.61-6.51-29.26-23.84-29.03-10.24.15-20.48.3-30.72.46Z"/>
      <path class="cls-1" d="m441.71,282.89c-19.66.67-39.32,1.45-58.98,2.32-2.14-17.1-4.24-34.22-6.29-51.37-23.57.9-47.13,1.93-70.68,3.08-4.92,17.66-9.89,35.37-14.9,53.11-17.87,1.08-35.74,2.24-53.59,3.49,30.28-99.22,59.05-196.96,86.29-293.52h78.87c11.55,95.08,24.64,189.27,39.28,282.89Zm-125.1-85.54c18.3-.74,36.6-1.41,54.91-2.02-5.51-47.91-10.66-96.04-15.43-144.4-12.79,48.54-25.95,97.34-39.47,146.42Z"/>
      <path class="cls-1" d="m567.81,124.39c24.07-.15,48.13-.22,72.2-.22,0,13.31,0,26.62,0,39.93-24.35,0-48.7.1-73.05.29-.82,38.53-1.64,77.06-2.45,115.59-19.5.25-38.99.61-58.48,1.06,3.51-93.68,7.03-187.36,10.54-281.04h142.55c.08,13.31.16,26.62.23,39.93-29.92-.02-59.83,0-89.75.07-.6,28.13-1.19,56.26-1.79,84.39Z"/>
      <path class="cls-1" d="m719.36,0h53.89c3.25,80.37,6.5,160.74,9.75,241.11,31.71.69,63.42,1.6,95.12,2.75.9,13.55,1.8,27.1,2.7,40.64-51.54-2.15-103.1-3.6-154.67-4.37-2.26-93.38-4.52-186.75-6.78-280.13Z"/>
      <path class="cls-1" d="m919.71,0h53.89c9.43,96.94,18.86,193.87,28.29,290.81-19.46-1.22-38.93-2.34-58.4-3.36-7.92-95.82-15.85-191.63-23.77-287.45Z"/>
      <path class="cls-1" d="m1226.85,0c-10.86,50.92-22.44,100.76-34.75,149.66,28.48,53.87,57.79,108.92,87.9,165.34-20.44-2.28-40.89-4.44-61.35-6.5-21.77-42.29-43.08-83.88-63.93-124.85-10.16,39.19-20.8,77.84-31.93,116.02-18.19-1.52-36.4-2.96-54.6-4.31,16.02-49.02,31.18-98.74,45.5-149.36-25.73-49.51-50.71-98.12-74.95-145.99h55.84c18.26,36.92,36.92,74.3,55.99,112.21,9.18-36.89,17.95-74.27,26.31-112.21h49.97Z"/>
    </g>
  </g>
</svg>